<svg width="133" height="26" viewBox="0 0 133 26" fill="none" xmlns="http://www.w3.org/2000/svg">
<g clip-path="url(#clip0_1_8)">
<path d="M23.04 8.04L19.14 22H15.84L13.22 12.06L10.48 22L7.2 22.02L3.44 8.04H6.44L8.9 18.88L11.74 8.04H14.86L17.54 18.82L20.02 8.04H23.04ZM35.1683 16.22C35.1683 16.62 35.1416 16.98 35.0883 17.3H26.9883C27.0549 18.1 27.3349 18.7267 27.8283 19.18C28.3216 19.6333 28.9283 19.86 29.6483 19.86C30.6883 19.86 31.4283 19.4133 31.8683 18.52H34.8883C34.5683 19.5867 33.9549 20.4667 33.0483 21.16C32.1416 21.84 31.0283 22.18 29.7083 22.18C28.6416 22.18 27.6816 21.9467 26.8283 21.48C25.9883 21 25.3283 20.3267 24.8483 19.46C24.3816 18.5933 24.1483 17.5933 24.1483 16.46C24.1483 15.3133 24.3816 14.3067 24.8483 13.44C25.3149 12.5733 25.9683 11.9067 26.8083 11.44C27.6483 10.9733 28.6149 10.74 29.7083 10.74C30.7616 10.74 31.7016 10.9667 32.5283 11.42C33.3683 11.8733 34.0149 12.52 34.4683 13.36C34.9349 14.1867 35.1683 15.14 35.1683 16.22ZM32.2683 15.42C32.2549 14.7 31.9949 14.1267 31.4883 13.7C30.9816 13.26 30.3616 13.04 29.6283 13.04C28.9349 13.04 28.3483 13.2533 27.8683 13.68C27.4016 14.0933 27.1149 14.6733 27.0083 15.42H32.2683ZM40.012 12.54C40.372 12.0067 40.8654 11.5733 41.492 11.24C42.132 10.9067 42.8587 10.74 43.672 10.74C44.6187 10.74 45.472 10.9733 46.232 11.44C47.0054 11.9067 47.612 12.5733 48.052 13.44C48.5054 14.2933 48.732 15.2867 48.732 16.42C48.732 17.5533 48.5054 18.56 48.052 19.44C47.612 20.3067 47.0054 20.98 46.232 21.46C45.472 21.94 44.6187 22.18 43.672 22.18C42.8454 22.18 42.1187 22.02 41.492 21.7C40.8787 21.3667 40.3854 20.94 40.012 20.42V22H37.212V7.2H40.012V12.54ZM45.872 16.42C45.872 15.7533 45.732 15.18 45.452 14.7C45.1854 14.2067 44.8254 13.8333 44.372 13.58C43.932 13.3267 43.452 13.2 42.932 13.2C42.4254 13.2 41.9454 13.3333 41.492 13.6C41.052 13.8533 40.692 14.2267 40.412 14.72C40.1454 15.2133 40.012 15.7933 40.012 16.46C40.012 17.1267 40.1454 17.7067 40.412 18.2C40.692 18.6933 41.052 19.0733 41.492 19.34C41.9454 19.5933 42.4254 19.72 42.932 19.72C43.452 19.72 43.932 19.5867 44.372 19.32C44.8254 19.0533 45.1854 18.6733 45.452 18.18C45.732 17.6867 45.872 17.1 45.872 16.42Z" fill="#494949"/>
<path d="M70.66 16.42C70.66 15.3 70.88 14.3067 71.32 13.44C71.7733 12.5733 72.38 11.9067 73.14 11.44C73.9133 10.9733 74.7733 10.74 75.72 10.74C76.5467 10.74 77.2667 10.9067 77.88 11.24C78.5067 11.5733 79.0067 11.9933 79.38 12.5V10.92H82.2V22H79.38V20.38C79.02 20.9 78.52 21.3333 77.88 21.68C77.2533 22.0133 76.5267 22.18 75.7 22.18C74.7667 22.18 73.9133 21.94 73.14 21.46C72.38 20.98 71.7733 20.3067 71.32 19.44C70.88 18.56 70.66 17.5533 70.66 16.42ZM79.38 16.46C79.38 15.78 79.2467 15.2 78.98 14.72C78.7133 14.2267 78.3533 13.8533 77.9 13.6C77.4467 13.3333 76.96 13.2 76.44 13.2C75.92 13.2 75.44 13.3267 75 13.58C74.56 13.8333 74.2 14.2067 73.92 14.7C73.6533 15.18 73.52 15.7533 73.52 16.42C73.52 17.0867 73.6533 17.6733 73.92 18.18C74.2 18.6733 74.56 19.0533 75 19.32C75.4533 19.5867 75.9333 19.72 76.44 19.72C76.96 19.72 77.4467 19.5933 77.9 19.34C78.3533 19.0733 78.7133 18.7 78.98 18.22C79.2467 17.7267 79.38 17.14 79.38 16.46ZM87.7347 12.52C88.0947 12.0133 88.588 11.5933 89.2147 11.26C89.8547 10.9133 90.5814 10.74 91.3947 10.74C92.3414 10.74 93.1947 10.9733 93.9547 11.44C94.728 11.9067 95.3347 12.5733 95.7747 13.44C96.228 14.2933 96.4547 15.2867 96.4547 16.42C96.4547 17.5533 96.228 18.56 95.7747 19.44C95.3347 20.3067 94.728 20.98 93.9547 21.46C93.1947 21.94 92.3414 22.18 91.3947 22.18C90.5814 22.18 89.8614 22.0133 89.2347 21.68C88.6214 21.3467 88.1214 20.9267 87.7347 20.42V27.28H84.9347V10.92H87.7347V12.52ZM93.5947 16.42C93.5947 15.7533 93.4547 15.18 93.1747 14.7C92.908 14.2067 92.548 13.8333 92.0947 13.58C91.6547 13.3267 91.1747 13.2 90.6547 13.2C90.148 13.2 89.668 13.3333 89.2147 13.6C88.7747 13.8533 88.4147 14.2267 88.1347 14.72C87.868 15.2133 87.7347 15.7933 87.7347 16.46C87.7347 17.1267 87.868 17.7067 88.1347 18.2C88.4147 18.6933 88.7747 19.0733 89.2147 19.34C89.668 19.5933 90.148 19.72 90.6547 19.72C91.1747 19.72 91.6547 19.5867 92.0947 19.32C92.548 19.0533 92.908 18.6733 93.1747 18.18C93.4547 17.6867 93.5947 17.1 93.5947 16.42ZM112.249 10.76C113.609 10.76 114.703 11.18 115.529 12.02C116.369 12.8467 116.789 14.0067 116.789 15.5V22H113.989V15.88C113.989 15.0133 113.769 14.3533 113.329 13.9C112.889 13.4333 112.289 13.2 111.529 13.2C110.769 13.2 110.163 13.4333 109.709 13.9C109.269 14.3533 109.049 15.0133 109.049 15.88V22H106.249V15.88C106.249 15.0133 106.029 14.3533 105.589 13.9C105.149 13.4333 104.549 13.2 103.789 13.2C103.016 13.2 102.403 13.4333 101.949 13.9C101.509 14.3533 101.289 15.0133 101.289 15.88V22H98.4894V10.92H101.289V12.26C101.649 11.7933 102.109 11.4267 102.669 11.16C103.243 10.8933 103.869 10.76 104.549 10.76C105.416 10.76 106.189 10.9467 106.869 11.32C107.549 11.68 108.076 12.2 108.449 12.88C108.809 12.24 109.329 11.7267 110.009 11.34C110.703 10.9533 111.449 10.76 112.249 10.76ZM129.746 16.22C129.746 16.62 129.72 16.98 129.666 17.3H121.566C121.633 18.1 121.913 18.7267 122.406 19.18C122.9 19.6333 123.506 19.86 124.226 19.86C125.266 19.86 126.006 19.4133 126.446 18.52H129.466C129.146 19.5867 128.533 20.4667 127.626 21.16C126.72 21.84 125.606 22.18 124.286 22.18C123.22 22.18 122.26 21.9467 121.406 21.48C120.566 21 119.906 20.3267 119.426 19.46C118.96 18.5933 118.726 17.5933 118.726 16.46C118.726 15.3133 118.96 14.3067 119.426 13.44C119.893 12.5733 120.546 11.9067 121.386 11.44C122.226 10.9733 123.193 10.74 124.286 10.74C125.34 10.74 126.28 10.9667 127.106 11.42C127.946 11.8733 128.593 12.52 129.046 13.36C129.513 14.1867 129.746 15.14 129.746 16.22ZM126.846 15.42C126.833 14.7 126.573 14.1267 126.066 13.7C125.56 13.26 124.94 13.04 124.206 13.04C123.513 13.04 122.926 13.2533 122.446 13.68C121.98 14.0933 121.693 14.6733 121.586 15.42H126.846Z" fill="#494949"/>
<path d="M58.5606 17.8498C58.796 17.5166 64.5526 9.77143 64.5526 9.77143L64.659 9.18569L64.7618 8.73568L64.6072 7.758L63.5813 6.34919L61.2664 5.72047L59.481 7.27949L52.5112 16.3502L52.4874 16.3948L52.3889 16.6864L52.4139 17.4342C52.4139 17.4342 58.3252 18.183 58.5606 17.8498Z" fill="url(#paint0_linear_1_8)"/>
<path d="M46.1845 2.52711L48.9961 8.21788C52.9512 8.18922 60.3595 8.41262 62.0073 8.45727C64.5411 8.52593 64.6398 9.33608 64.5055 9.83806C67.401 4.9132 63.4562 2.61027 61.0129 2.54406L46.1845 2.52711Z" fill="#36C9B9"/>
<path d="M70.8167 23.6154L68.0051 17.9246C64.05 17.9533 56.6418 17.7299 54.9939 17.6852C52.4602 17.6166 52.3769 16.8521 52.5112 16.3502C49.6158 21.275 53.545 23.5322 55.9883 23.5985L70.8167 23.6154Z" fill="#36C9B9"/>
</g>
<defs>
<linearGradient id="paint0_linear_1_8" x1="54.3789" y1="19.276" x2="61.0797" y2="9.26981" gradientUnits="userSpaceOnUse">
<stop stop-color="white" stop-opacity="0.9"/>
<stop offset="0.20108" stop-color="white" stop-opacity="0.62"/>
<stop offset="1" stop-color="#36C9B9"/>
</linearGradient>
<clipPath id="clip0_1_8">
<rect width="133" height="26" fill="white"/>
</clipPath>
</defs>
</svg>
