<svg width="29" height="26" viewBox="0 0 29 26" fill="none" xmlns="http://www.w3.org/2000/svg">
<path d="M14.5606 17.8498C14.796 17.5166 20.5526 9.77143 20.5526 9.77143L20.659 9.18569L20.7618 8.73568L20.6072 7.758L19.5813 6.34919L17.2664 5.72047L15.481 7.27949L8.51124 16.3502L8.48739 16.3948L8.38893 16.6864L8.41394 17.4342C8.41394 17.4342 14.3252 18.183 14.5606 17.8498Z" fill="url(#paint0_linear_1_8)"/>
<path d="M2.18452 2.52711L4.99608 8.21788C8.95122 8.18922 16.3595 8.41262 18.0073 8.45727C20.5411 8.52593 20.6398 9.33608 20.5055 9.83806C23.401 4.9132 19.4562 2.61027 17.0129 2.54406L2.18452 2.52711Z" fill="#36C9B9"/>
<path d="M26.8167 23.6154L24.0051 17.9246C20.05 17.9533 12.6418 17.7299 10.9939 17.6852C8.46016 17.6166 8.37688 16.8521 8.51123 16.3502C5.61576 21.275 9.54503 23.5322 11.9883 23.5985L26.8167 23.6154Z" fill="#36C9B9"/>
<defs>
<linearGradient id="paint0_linear_1_8" x1="10.3789" y1="19.276" x2="17.0797" y2="9.26981" gradientUnits="userSpaceOnUse">
<stop stop-color="white" stop-opacity="0.9"/>
<stop offset="0.20108" stop-color="white" stop-opacity="0.62"/>
<stop offset="1" stop-color="#36C9B9"/>
</linearGradient>
</defs>
</svg>
